<svg id="Capa_1" enable-background="new 0 0 512.028 512.028" height="512" viewBox="0 0 512.028 512.028" width="512" xmlns="http://www.w3.org/2000/svg"><g><path d="m423.11 149.708c1.42 35.745 18.054 58.934 71.523 65.865l16.887 2.195c4.269-34.551-18.807-68.194-54.395-75.308-10.931-2.189-22.304-4.065-34.016-5.662v12.91z"/><path d="m490.846 245.333c-57.553-6.88-95.504-35.899-97.725-94.769-.017-.464-.011-3.804-.011-17.191-96.8-9.031-210.499-1.575-296.129 10.067l-18.865-52.494c-1.566-4.358-5.058-7.748-9.46-9.186l-49-16c-9.698-3.168-19.656 4.078-19.656 14.259v123.62c0 31.164 19.629 59.414 48.848 70.298 19.185 7.141 51.281 16.541 98.482 22.651l-18.192 133.405c-1.228 9.008 5.783 17.026 14.862 17.026h68.127c28.298 0 53.548-15.638 66.337-40h25.536c8.284 0 15-6.716 15-15s-6.716-15-15-15h-14.759l8.273-26h22.486c8.284 0 15-6.716 15-15s-6.716-15-15-15h-12.941c25.794-81.069 21.672-68.12 22.133-69.568 2.512-7.895 10.944-12.259 18.842-9.746 7.895 2.512 12.258 10.947 9.746 18.842l-12.209 38.373c70.369-6.806 109.447-20.212 124.374-26.383 13.254-5.494 24.01-14.958 31.104-25.875zm-342.487-22.974c-7.095 2.271-15.927-1.298-18.71-9.99-2.198-7.239 1.272-15.85 9.99-18.7 8.459-2.515 17.217 2.583 19.07 11.42 1.506 8.05-3.325 15.137-10.35 17.27zm55.991.01c-7.321 2.238-15.939-1.376-18.7-10-2.382-7.846 1.989-16.254 9.99-18.7 8.461-2.516 17.217 2.585 19.07 11.42 1.399 7.483-2.67 14.833-10.36 17.28zm54.58.36c-8.358 1.566-15.972-3.737-17.64-11.78-1.55-8.273 3.649-15.951 11.779-17.64 8.186-1.531 15.91 3.528 17.641 11.779 1.55 8.289-3.647 15.938-11.78 17.641zm57.429-.36c-7.494 2.244-15.982-1.481-18.71-10-2.227-7.333 1.338-15.871 9.99-18.7 8.459-2.515 17.217 2.583 19.07 11.42 1.38 7.376-2.538 14.742-10.35 17.28zm54.571.36c-8.341 1.563-15.969-3.719-17.64-11.78-2.474-13.204 11.909-22.741 23.04-15.399 10.97 7.402 7.823 24.41-5.4 27.179z"/></g></svg>